<svg
   width="16.572643mm"
   height="16.165119mm"
   viewBox="0 0 16.572643 16.165119"
   version="1.1"
   xmlns="http://www.w3.org/2000/svg">
    <g transform="translate(-136.46333,-140.5839)">
        <ellipse
           style="fill:#07121a;fill-opacity:1;"
           cx="144.74965"
           cy="148.66646"
           rx="8.2863216"
           ry="8.0825596" />
        <path
           style="fill:#1faeff;fill-opacity:1;stroke:#1faeff;stroke-width:0.137795;stroke-linejoin:round;"
           d="m 146.78825,152.97306 c -0.19591,-0.0631 -0.38891,-0.18128 -1.40248,-0.85927 -1.33952,-0.89601 -1.64476,-1.10871 -1.80817,-1.26001 -0.16212,-0.15012 -0.23288,-0.30742 -0.20571,-0.45736 0.0407,-0.22441 0.0218,-0.20494 2.5195,-2.60319 0.24669,-0.23688 0.45959,-0.4516 0.4731,-0.47716 0.0255,-0.0482 -0.009,-0.14579 -0.0653,-0.18369 -0.0777,-0.0526 0.0938,-0.16117 -2.77524,1.75618 -0.67114,0.44852 -1.27929,0.84579 -1.35144,0.88283 -0.28517,0.14639 -0.62617,0.18268 -0.99064,0.10541 -0.32719,-0.0694 -1.36956,-0.40925 -1.61757,-0.52743 -0.23983,-0.1143 -0.31771,-0.2667 -0.22112,-0.43262 0.096,-0.1649 0.35454,-0.29903 1.74028,-0.90291 0.74692,-0.32548 1.36968,-0.60143 1.38391,-0.61323 0.0302,-0.0251 1.58504,-0.68146 1.61415,-0.68146 0.0108,0 0.28656,-0.11316 0.61282,-0.25147 1.53739,-0.65174 2.55596,-1.07407 2.78911,-1.15642 0.73793,-0.26066 1.06098,-0.2126 1.17202,0.17437 0.0698,0.24341 0.0566,0.35169 -0.39178,3.19937 -0.0352,0.22345 -0.0945,0.60679 -0.13178,0.85187 -0.12298,0.80793 -0.42557,2.53893 -0.47789,2.73381 -0.15675,0.5839 -0.46269,0.83208 -0.86583,0.70238 z" />
    </g>
</svg>