<svg xmlns="http://www.w3.org/2000/svg" width="430" height="430" fill="none" viewBox="0 0 430 430"><rect width="320" height="320" x="55" y="55" fill="#fff" rx="20"/><path fill="#fff" d="M75 55c-11.046 0-20 8.954-20 20v280c0 11.046 8.954 20 20 20h45c-11.046 0-20-8.954-20-20V75c0-11.046 8.954-20 20-20z" opacity=".5" style="mix-blend-mode:multiply"/><mask id="gDxU7vVrD6a" width="320" height="320" x="55" y="55" maskUnits="userSpaceOnUse" style="mask-type:alpha"><rect width="320" height="320" x="55" y="55" fill="#fff" rx="20"/></mask><g mask="url(#gDxU7vVrD6a)"><path fill="#00040f" d="M285 105v55h-35c-8.284 0-15 6.716-15 15v40h55l-15 55h-40v115h-55V270h-40v-55h40v-45c0-35.899 29.101-65 65-65z"/><path fill="#00040f" d="M210 385V270h-30v115zm-40-115v-55h-30v55zm10-55h30v-45c0-35.899 29.101-65 65-65h-30c-35.899 0-65 29.101-65 65z" opacity=".5" style="mix-blend-mode:multiply"/><path stroke="#00040f" stroke-linejoin="round" stroke-width="7" d="M285 105v55h-35c-8.284 0-15 6.716-15 15v40h55l-15 55h-40v115h-55V270h-40v-55h40v-45c0-35.899 29.101-65 65-65z"/></g><rect width="320" height="320" x="55" y="55" stroke="#00040f" stroke-linejoin="round" stroke-width="7" rx="20"/></svg>