<svg xmlns="http://www.w3.org/2000/svg" width="430" height="430" fill="none" viewBox="0 0 430 430"><rect width="320" height="320" x="55" y="55" fill="#fff" rx="20"/><path fill="#fff" d="M75 55c-11.046 0-20 8.954-20 20v280c0 11.046 8.954 20 20 20h45c-11.046 0-20-8.954-20-20V75c0-11.046 8.954-20 20-20z" opacity=".5" style="mix-blend-mode:multiply"/><rect width="320" height="320" x="55" y="55" stroke="#00040f" stroke-linejoin="round" stroke-width="7" rx="20"/><rect width="200" height="200" x="115" y="115" stroke="#00040f" stroke-width="7" rx="35"/><rect width="200" height="200" x="115" y="115" stroke="#00040f" stroke-width="20" rx="35"/><circle cx="215" cy="215" r="45" stroke="#00040f" stroke-width="20"/><path fill="#00040f" d="M105 150c0-24.853 20.147-45 45-45h65v20h-65c-13.807 0-25 11.193-25 25v130c0 13.807 11.193 25 25 25h65v20h-65c-24.853 0-45-20.147-45-45z" opacity=".5" style="mix-blend-mode:multiply"/><path fill="#00040f" d="M215 180c-19.33 0-35 15.67-35 35s15.67 35 35 35v20c-30.376 0-55-24.624-55-55s24.624-55 55-55z" opacity=".5" style="mix-blend-mode:multiply"/><path stroke="#00040f" stroke-width="7" d="M105 150c0-24.853 20.147-45 45-45h130c24.853 0 45 20.147 45 45v130c0 24.853-20.147 45-45 45H150c-24.853 0-45-20.147-45-45zm45-25c-13.807 0-25 11.193-25 25v130c0 13.807 11.193 25 25 25h130c13.807 0 25-11.193 25-25V150c0-13.807-11.193-25-25-25z" clip-rule="evenodd"/><path stroke="#00040f" stroke-width="7" d="M215 180c-19.33 0-35 15.67-35 35s15.67 35 35 35 35-15.67 35-35-15.67-35-35-35Zm-55 35c0-30.376 24.624-55 55-55s55 24.624 55 55-24.624 55-55 55-55-24.624-55-55Z" clip-rule="evenodd"/><circle cx="275" cy="155" r="5" fill="#00040f" stroke="#00040f" stroke-width="7"/></svg>