<svg xmlns="http://www.w3.org/2000/svg" width="430" height="430" fill="none" viewBox="0 0 430 430"><rect width="320" height="320" x="55" y="55" fill="#fff" rx="20"/><path fill="#fff" d="M75 55c-11.046 0-20 8.954-20 20v280c0 11.046 8.954 20 20 20h45c-11.046 0-20-8.954-20-20V75c0-11.046 8.954-20 20-20z" opacity=".5" style="mix-blend-mode:multiply"/><path fill="#00040f" d="M125 180h40v120h-40z"/><path fill="#00040f" d="M125 180v120h20V180z" opacity=".5" style="mix-blend-mode:multiply"/><path fill="#00040f" d="M315 218.173V300h-40v-67.5c0-12.426-10.074-22.5-22.5-22.5S230 220.074 230 232.5V300h-40V180h40v15l11.86-9.488A47.97 47.97 0 0 1 271.827 175C295.671 175 315 194.329 315 218.173"/><path fill="#00040f" d="M295 300v-67.5c0-12.426-10.074-22.5-22.5-22.5-3.592 0-6.988.842-10 2.339 7.409 3.682 12.5 11.327 12.5 20.161V300zm-85-120h-20v120h20z" opacity=".5" style="mix-blend-mode:multiply"/><circle cx="144.5" cy="132.5" r="22.5" fill="#00040f"/><path fill="#00040f" d="M145.338 110.015q-.417-.015-.838-.015c-12.426 0-22.5 10.074-22.5 22.5s10.074 22.5 22.5 22.5a22.4 22.4 0 0 0 14.162-5.015C146.624 149.544 137 139.646 137 127.5c0-7.059 3.251-13.36 8.338-17.485" opacity=".5" style="mix-blend-mode:multiply"/><path stroke="#00040f" stroke-linejoin="round" stroke-width="7" d="M125 180h40v120h-40zm190 38.173V300h-40v-67.5c0-12.426-10.074-22.5-22.5-22.5S230 220.074 230 232.5V300h-40V180h40v15l11.86-9.488A47.97 47.97 0 0 1 271.827 175C295.671 175 315 194.329 315 218.173Z"/><circle cx="144.5" cy="132.5" r="22.5" stroke="#00040f" stroke-linejoin="round" stroke-width="7"/><rect width="320" height="320" x="55" y="55" stroke="#00040f" stroke-linejoin="round" stroke-width="7" rx="20"/></svg>