<svg width="785" height="195" viewBox="0 0 785 195" fill="none" xmlns="http://www.w3.org/2000/svg">
<path fill-rule="evenodd" clip-rule="evenodd" d="M441.892 48.817C441.832 75.666 441.832 108.884 441.892 122.634C441.953 136.384 442.001 148.197 442.001 148.884C442 150.388 467.527 150.709 468.449 149.216C468.761 148.711 469.041 136.336 469.071 121.716L469.125 95.134L481.813 95.11C502.147 95.072 516.592 93.625 524.179 90.864C537.862 85.885 546.657 77.876 551.058 66.386C554.157 58.294 554.881 42.676 552.531 34.593C547.945 18.818 537.726 8.436 521.464 3.033C514.796 0.817 512.958 0.703 478.25 0.359L442 0L441.892 48.817ZM380.488 12.154C380.121 12.748 379.964 18.723 380.139 25.433L380.458 37.634L371.479 38.134L362.5 38.634V48.134V57.634L371.237 58.134L379.974 58.634L380.272 93.634C380.554 126.829 380.683 128.943 382.773 134.634C385.486 142.02 391.764 148.414 398.112 150.256C402.969 151.665 418.812 151.735 423.5 150.369L426.5 149.494L426.786 139.194L427.073 128.894L421.644 129.573C414.898 130.416 409.446 128.436 407.994 124.617C407.411 123.084 407 108.815 407 90.106V58.209L416.25 57.922L425.5 57.634L425.786 47.884L426.072 38.134H416.565H407.058L406.779 24.884L406.5 11.634L393.827 11.355C385.55 11.172 380.923 11.45 380.488 12.154ZM513.557 25.657C518.772 28.326 519.844 29.418 522.731 34.994C525.496 40.335 526 42.371 526 48.201C526 56.969 523.976 62.015 518.785 66.187C512.145 71.523 509.461 72.042 488.25 72.09L469 72.134V47.801C469 34.417 469.334 23.134 469.741 22.726C470.149 22.318 478.846 22.131 489.067 22.309C507.49 22.631 507.703 22.66 513.557 25.657ZM174.059 37.69C160.604 40.607 150.226 47.992 145.064 58.323C143.379 61.695 142 65.957 142 67.794V71.134H154.802H167.603L169.681 66.216C172.463 59.632 177.739 56.724 187 56.671C198.626 56.605 205 63.175 205 75.224V80.891L189.75 81.398C168.034 82.12 158.214 85.197 148.974 94.172C142.861 100.11 140 107.544 140 117.493C140 127.229 142.142 133.034 148.166 139.625C156.854 149.131 170.091 153.349 184.324 151.148C191.36 150.06 199.824 146.45 203.724 142.874C205.47 141.273 206.044 141.135 206.395 142.234C206.64 143.004 207.252 144.984 207.753 146.634L208.664 149.634L221.501 149.915C228.561 150.07 234.669 149.845 235.074 149.415C235.479 148.986 234.979 145.484 233.963 141.634C232.386 135.661 232.106 130.528 232.05 106.634C231.977 75.23 231.088 64.533 227.942 57.221C225.524 51.601 218.452 44.426 212.174 41.223C202.598 36.338 186.973 34.889 174.059 37.69ZM286 37.948C274.01 41.082 264.7 47.959 260.315 56.922C258.044 61.564 257.549 63.919 257.542 70.104C257.524 87.051 267.963 95.962 296.775 103.592C304.076 105.526 311.349 107.78 312.936 108.601C323.019 113.815 322.002 126.622 311.217 130.251C305.264 132.255 294.958 131.776 289.748 129.254C284.065 126.503 282.302 124.526 280.143 118.488L278.408 113.634L266.323 113.354C252.407 113.032 252.445 113.007 254.394 121.289C257.073 132.669 263.553 140.353 275.325 146.108C285.167 150.92 294.211 152.56 305.5 151.582C321.238 150.217 331.528 145.885 338.884 137.529C343.742 132.01 346.002 125.709 345.994 117.706C345.986 108.844 344.424 104.502 339.257 98.978C333.126 92.424 323.717 87.998 306.831 83.727C291.634 79.883 288.145 78.405 285.088 74.519C282.48 71.203 282.438 67.569 284.96 63.433C290.26 54.739 307.126 53.747 314.615 61.688C316.356 63.533 318.184 66.751 318.677 68.838L319.575 72.634H332.038H344.5L344.8 69.056C345.577 59.797 336.317 46.271 325.863 41.393C314.664 36.169 298.239 34.749 286 37.948ZM605.059 37.629C588.028 41.483 575.182 53.231 573.345 66.631L572.728 71.134H585.728H598.728L600.45 66.626C602.926 60.142 609.088 56.634 618 56.634C629.64 56.634 636 63.198 636 75.212V80.866L620.75 81.427C599.083 82.223 589.055 85.4 579.79 94.404C573.844 100.183 571 107.652 571 117.493C571 127.191 573.146 133.038 579.094 139.547C587.74 149.007 601.449 153.363 615.566 151.138C622.648 150.022 630.743 146.531 634.724 142.876C636.469 141.274 637.044 141.136 637.395 142.234C637.64 143.004 638.252 144.984 638.753 146.634L639.664 149.634L652.501 149.915C659.561 150.07 665.746 149.788 666.245 149.289C666.787 148.747 666.445 146.223 665.393 143.008C663.908 138.467 663.533 132.052 662.979 101.634C662.187 58.13 662.176 58.079 652.151 48.127C646.537 42.555 644.408 41.163 638.5 39.202C629.583 36.242 614.351 35.526 605.059 37.629ZM685 39.403C685 40.102 693.56 64.912 704.022 94.538L723.043 148.403L720.943 154.018C715.827 167.703 712.151 170.968 700.711 171.99L693.5 172.634V182.589V192.544L697.5 193.415C704.566 194.953 715.916 193.76 721.54 190.887C727.844 187.668 733.99 181.077 737.886 173.36C739.536 170.092 748.154 146.317 757.038 120.526C784.446 40.963 785.053 39.092 783.662 38.558C782.965 38.29 776.619 38.198 769.56 38.353L756.726 38.634L752.311 53.634C745.575 76.524 735.782 108.586 735.394 109.027C735.203 109.243 734.848 108.793 734.604 108.027C734.361 107.261 729.824 92.684 724.522 75.634C719.221 58.584 714.424 43.172 713.864 41.384L712.845 38.134H698.922C688.337 38.134 685 38.438 685 39.403ZM205 108.099C205 117.915 204.951 118.12 201.752 121.764C195.048 129.4 180.605 132.629 173.241 128.139C166.174 123.831 163.864 114.568 168.25 108.124C173.219 100.823 180.066 98.307 195.25 98.201L205 98.134V108.099ZM636 108.431V118.728L632.25 122.371C618.495 135.733 595.779 130.822 597.271 114.81C598.329 103.459 607.273 98.333 626.25 98.201L636 98.134V108.431Z" fill="white"/>
<path d="M60 67L0 7H119V67H60Z" fill="#97E5FF"/>
<path d="M59.0666 67.0655L119 127.132L7.09295e-05 127L0.0666436 67L59.0666 67.0655Z" fill="#1FAEFF"/>
<path d="M60.5 185L1.5 127.5H60.5V185Z" fill="#1870FA" stroke="#136FFF"/>
</svg>
