<?xml version="1.0" encoding="UTF-8" standalone="no"?>
<svg
   width="14.984847mm"
   height="10.451788mm"
   viewBox="0 0 14.984847 10.451788"
   xmlns="http://www.w3.org/2000/svg"><defs
     id="defs1" /><g
     id="layer1"
     transform="translate(-76.631655,-135.71461)"><path
       style="fill:#1caeff;fill-opacity:1;fill-rule:nonzero;stroke:#1caeff;stroke-width:1;stroke-linejoin:round;stroke-opacity:1;paint-order:fill markers stroke"
       d="m 80.685639,136.22906 c -0.876155,2.10825 -2.251797,5.41839 -3.842173,9.24523 1.199315,-0.03 2.520744,-0.0631 3.842173,-0.0961 0.801117,-3.21272 1.602233,-6.42545 2.329318,-9.34128 -0.964166,0.0795 -1.798149,0.14833 -2.329318,0.19215 z m 0,0 c 0.531169,-0.0438 1.365152,-0.11261 2.329318,-0.19215 -0.727085,2.91583 -1.528201,6.12856 -2.329318,9.34128 -1.321429,0.0331 -2.642858,0.0661 -3.842173,0.0961 1.590376,-3.82684 2.966018,-7.13698 3.842173,-9.24523 z"
       id="path4"
       transform="translate(0.288163,0.19210867)" /><path
       style="fill:#1caeff;fill-opacity:1;stroke:#1caeff;stroke-width:0.128354;stroke-linejoin:round;stroke-opacity:1;paint-order:fill markers stroke"
       d="m 77.895341,145.11222 c 0.02994,-0.10823 3.390619,-8.17762 3.416625,-8.20373 0.02254,-0.0226 1.054193,-0.1265 1.266304,-0.1275 l 0.08912,-5.3e-4 -1.038977,4.15648 -1.038979,4.15648 -0.934937,0.0208 c -0.514215,0.0114 -1.124265,0.0297 -1.355664,0.0405 -0.39674,0.0186 -0.419743,0.0162 -0.403489,-0.0426 z"
       id="path5" /><path
       style="fill:#1caeff;fill-opacity:1;fill-rule:nonzero;stroke:#1caeff;stroke-width:1;stroke-linejoin:round;stroke-opacity:1;paint-order:fill markers stroke"
       d="m 80.685639,136.22906 c -0.876155,2.10825 -2.251797,5.41839 -3.842173,9.24523 1.199315,-0.03 2.520744,-0.0631 3.842173,-0.0961 0.801117,-3.21272 1.602233,-6.42545 2.329318,-9.34128 -0.964166,0.0795 -1.798149,0.14833 -2.329318,0.19215 z m 0,0 c 0.531169,-0.0438 1.365152,-0.11261 2.329318,-0.19215 -0.727085,2.91583 -1.528201,6.12856 -2.329318,9.34128 -1.321429,0.0331 -2.642858,0.0661 -3.842173,0.0961 1.590376,-3.82684 2.966018,-7.13698 3.842173,-9.24523 z"
       id="path4-1"
       transform="translate(8.1015608,0.17769301)" /><path
       style="fill:#1caeff;fill-opacity:1;stroke:#1caeff;stroke-width:0.128354;stroke-linejoin:round;stroke-opacity:1;paint-order:fill markers stroke"
       d="m 85.708739,145.09781 c 0.02994,-0.10823 3.390619,-8.17762 3.416625,-8.20373 0.02254,-0.0226 1.054193,-0.12651 1.266304,-0.1275 l 0.08912,-5.3e-4 -1.038977,4.15648 -1.038979,4.15648 -0.934937,0.0208 c -0.514215,0.0114 -1.124265,0.0297 -1.355664,0.0405 -0.39674,0.0186 -0.419743,0.0162 -0.403489,-0.0426 z"
       id="path5-6" /></g></svg>
