<svg
   width="16.572643mm"
   height="16.165119mm"
   viewBox="0 0 16.572643 16.165119"
   version="1.1"
   xmlns="http://www.w3.org/2000/svg">
    <g transform="translate(-113.44119,-139.75411)">
        <ellipse
           style="fill:#07121a;fill-opacity:1;"
           cx="121.72751"
           cy="147.83667"
           rx="8.2863216"
           ry="8.0825596" />
        <g transform="matrix(0.00976622,0,0,-0.00959725,112.88718,167.59161)">
            <path
               style="fill:#1faeff;fill-opacity:1;"
               d="m 867.77971,1524.9611 c -77.1513,20.2038 -173.0325,81.5995 -257.3535,164.7912 -33.6627,33.2116 -48.2204,50.6811 -75.1493,90.1795 -74.4322,109.1738 -87.1269,168.4753 -87.2086,407.387 -0.032,119.1604 0.2201,122.7214 10.5332,141.3183 6.3306,11.4213 24.3279,24.6054 66.9496,49.0464 104.5948,59.978 267.3662,137.5517 333.2542,158.8227 18.2677,5.8973 19.9084,6.0865 46.247,5.322 l 27.3076,-0.7908 28.5369,-11.9925 c 86.82419,-36.4869 273.26439,-126.9716 335.78689,-162.9673 36.2562,-20.8734 46.1126,-32.1235 52.6894,-60.1389 3.8689,-16.4806 3.9482,-261.5639 0.094,-295.5746 -7.1409,-63.039 -23.8438,-118.3724 -52.8293,-175.0111 -28.1178,-54.9428 -48.2356,-83.2819 -91.8748,-129.4204 -66.1652,-69.9547 -158.6153,-137.8399 -226.05109,-165.9875 -41.273,-17.2271 -81.5771,-22.6706 -110.9341,-14.9827 z" />
            <path
               style="fill:none;stroke:#07121a;stroke-width:51.6455;stroke-linejoin:round;"
               d="m 1757.0574,3732.0332 c 30.4896,-30.0256 91.4689,-90.0767 152.4481,-150.1279 104.2549,114.0972 208.5098,228.1944 260.6372,285.243 -52.1274,-57.0486 -156.3823,-171.1458 -260.6372,-285.243 -60.9792,60.0512 -121.9585,120.1023 -152.4481,150.1279 z"
               transform="translate(-1034.0192,-1702.5783)" />
        </g>
    </g>
</svg>